<svg width="100" height="21" xmlns="http://www.w3.org/2000/svg" stroke="#000000" fill="#000000" version="1.1" class="icon">
    <g>
        <g stroke="null" id="SVGRepo_iconCarrier">
            <path stroke="null" id="svg_2" fill="#75f024" d="m19.94349,9.97114c-0.02682,3.14289 -2.63758,5.70055 -5.84582,5.72683c-3.20872,0.02624 -5.81927,-2.62337 -5.84573,-5.72683c-0.01124,-1.31673 -2.09648,-1.31776 -2.08525,0c0.01716,2.01253 0.80384,3.91369 2.20864,5.37929c1.39363,1.45405 3.35632,2.26615 5.37149,2.38168c2.05218,0.11775 4.0534,-0.64585 5.59987,-1.93943c1.54938,-1.29597 2.42938,-3.17996 2.64718,-5.13863c0.02524,-0.22672 0.03289,-0.45502 0.03483,-0.6829c0.01124,-1.31778 -2.07397,-1.31674 -2.0852,-0.00002z"/>
            <path stroke="null" id="svg_3" fill="#C45FA0" d="m8.25194,9.60309c0.0268,-3.14301 2.63745,-5.70066 5.84573,-5.72692c1.34408,-0.01101 1.34513,-2.05378 0,-2.04279c-2.08857,0.01708 -4.06989,0.8146 -5.56933,2.23809c-1.51583,1.43896 -2.34414,3.47633 -2.36165,5.53162c-0.01124,1.31778 2.07399,1.31665 2.08525,0l0.00001,0l-0.00001,0z"/>
            <path stroke="null" id="svg_4" fill="#E5594F" d="m12.26172,11.44287c-0.87344,-1.14155 -0.74446,-2.43422 0.34218,-3.35315c1.01636,-0.85953 2.5196,-0.53396 3.37944,0.51276c0.35685,0.43436 1.1052,0.36176 1.47449,0c0.43399,-0.4252 0.35593,-1.01114 0,-1.44445c-1.43859,-1.75121 -4.1869,-2.09511 -6.02459,-0.74567c-1.91593,1.40689 -2.43813,4.14542 -0.97208,6.06151c0.34015,0.44455 0.89384,0.67213 1.4265,0.36642c0.44826,-0.2572 0.71574,-0.95084 0.37405,-1.39741l0,-0.00001z"/>
            <path stroke="null" id="svg_5" fill="#F39A2B" d="m15.93379,8.53894c0.4946,0.64647 0.62249,1.13023 0.55114,1.884c0.01152,-0.09233 0.00658,-0.07566 -0.0149,0.05012c-0.02097,0.10693 -0.05255,0.21145 -0.08397,0.31566c-0.06632,0.21951 -0.04809,0.15639 -0.15721,0.35915c-0.19315,0.35884 -0.37852,0.5403 -0.73,0.81742c-0.44342,0.3496 -0.36933,1.08268 0,1.44447c0.43399,0.42514 1.03218,0.34872 1.47445,0c1.78745,-1.40945 2.13838,-4.10162 0.76099,-5.9019c-0.34011,-0.44455 -0.89383,-0.67209 -1.42652,-0.36642c-0.44826,0.25728 -0.71569,0.95086 -0.37399,1.39748l0.00001,0z"/>
        </g>
        <text font-weight="bold" xml:space="preserve" text-anchor="start" font-family="'Dancing Script'" font-size="24" stroke-width="0" id="svg_6" y="-4.77903" x="-143.76761" fill="#000000" stroke="#000" transform="matrix(0.395085 0 0 0.698277 87.6682 18.7635)">Walrus Movie</text>
    </g>

</svg>